<svg xmlns="http://www.w3.org/2000/svg" viewBox="0 0 36.95 36.95"><defs><style>.cls-1{fill:#000;}</style></defs><title>FP icon 1-2</title><g id="Layer_2" data-name="Layer 2"><g id="Layer_1-2"  fill="#fff" data-name="Layer 1"><path d="M18.47,0A18.48,18.48,0,1,0,37,18.48,18.47,18.47,0,0,0,18.47,0Zm0,35.53a17.05,17.05,0,1,1,17.06-17A17.07,17.07,0,0,1,18.47,35.53Z"/><path class="cls-1" fill="#fff" d="M18.47,1.43A17.05,17.05,0,1,0,35.53,18.48,17.07,17.07,0,0,0,18.47,1.43Zm-.53,17.33a4.16,4.16,0,0,0-.3-.94,1.38,1.38,0,0,0-.48-.57,1.59,1.59,0,0,0-.8-.17H14.1v4.14a5.42,5.42,0,0,0,.08,1,1.48,1.48,0,0,0,.26.65,1.13,1.13,0,0,0,.51.37,4.3,4.3,0,0,0,.57.18v.17H11.38v-.18a2,2,0,0,0,.79-.36,1.22,1.22,0,0,0,.33-.66,6.56,6.56,0,0,0,.07-1.15V12.5a6.37,6.37,0,0,0-.06-1,1.36,1.36,0,0,0-.19-.57,1.1,1.1,0,0,0-.37-.34,2.48,2.48,0,0,0-.57-.21v-.19h8.87v2.7h-.68a8.49,8.49,0,0,0-.4-1,2.73,2.73,0,0,0-.47-.7,1.46,1.46,0,0,0-.61-.36,3.3,3.3,0,0,0-.85-.09H14.1v5.86h2.26a1.49,1.49,0,0,0,.79-.18,1.24,1.24,0,0,0,.49-.56,4.22,4.22,0,0,0,.3-1h.63v3.91ZM22,23.71c-.18,0-.5,0-1-.06v5H18.57v-7.2H21.9c2.05,0,3-.72,3-2.28s-1-2.07-3.24-2.07H21V14.86h.33c4,0,6.05,1.39,6.05,4.13C27.41,22.12,25.6,23.71,22,23.71Z"/><path  fill="#fff" d="M18.57,18.76h-.63a4.16,4.16,0,0,0-.3-.94,1.38,1.38,0,0,0-.48-.57,1.59,1.59,0,0,0-.8-.17H14.1v4.14a5.42,5.42,0,0,0,.08,1,1.48,1.48,0,0,0,.26.65,1.13,1.13,0,0,0,.51.37,4.3,4.3,0,0,0,.57.18v.17H11.38v-.18a2,2,0,0,0,.79-.36,1.22,1.22,0,0,0,.33-.66,6.56,6.56,0,0,0,.07-1.15V12.5a6.37,6.37,0,0,0-.06-1,1.36,1.36,0,0,0-.19-.57,1.1,1.1,0,0,0-.37-.34,2.48,2.48,0,0,0-.57-.21v-.19h8.87v2.7h-.68a8.49,8.49,0,0,0-.4-1,2.73,2.73,0,0,0-.47-.7,1.46,1.46,0,0,0-.61-.36,3.3,3.3,0,0,0-.85-.09H14.1v5.86h2.26a1.49,1.49,0,0,0,.79-.18,1.24,1.24,0,0,0,.49-.56,4.22,4.22,0,0,0,.3-1h.63Z"/><path  fill="#fff" d="M27.41,19c0,3.14-1.81,4.73-5.39,4.73-.18,0-.5,0-1-.06v5H18.57v-7.2H21.9c2.05,0,3-.72,3-2.28s-1-2.07-3.24-2.07H21V14.86h.33C25.37,14.85,27.41,16.24,27.41,19Z"/><path  fill="#fff" d="M20.25,10.15v2.7h-.68a8.49,8.49,0,0,0-.4-1,2.73,2.73,0,0,0-.47-.7,1.46,1.46,0,0,0-.61-.36,3.3,3.3,0,0,0-.85-.09H14.1v5.86h2.26a1.49,1.49,0,0,0,.79-.18,1.24,1.24,0,0,0,.49-.56,4.22,4.22,0,0,0,.3-1h.63v3.91h-.63a4.16,4.16,0,0,0-.3-.94,1.38,1.38,0,0,0-.48-.57,1.59,1.59,0,0,0-.8-.17H14.1v4.14a5.42,5.42,0,0,0,.08,1,1.48,1.48,0,0,0,.26.65,1.13,1.13,0,0,0,.51.37,4.3,4.3,0,0,0,.57.18v.17H11.38v-.18a2,2,0,0,0,.79-.36,1.22,1.22,0,0,0,.33-.66,6.56,6.56,0,0,0,.07-1.15V12.5a6.37,6.37,0,0,0-.06-1,1.36,1.36,0,0,0-.19-.57,1.1,1.1,0,0,0-.37-.34,2.48,2.48,0,0,0-.57-.21v-.19Z"/><path  fill="#fff" d="M27.41,19c0,3.14-1.81,4.73-5.39,4.73-.18,0-.5,0-1-.06v5H18.57v-7.2H21.9c2.05,0,3-.72,3-2.28s-1-2.07-3.24-2.07H21V14.86h.33C25.37,14.85,27.41,16.24,27.41,19Z"/></g></g></svg>