<svg xmlns="http://www.w3.org/2000/svg" viewBox="0 0 16.03 18.49"><title>FP icon 1-3</title><g id="Layer_2" data-name="Layer 2"><g id="Layer_1-2" data-name="Layer 1"><path fill="#fff" d="M0,0V.18A2.81,2.81,0,0,1,.56.4,1,1,0,0,1,.94.74a1.52,1.52,0,0,1,.19.57,6.66,6.66,0,0,1,.05,1V11.1a7.88,7.88,0,0,1-.06,1.14,1.13,1.13,0,0,1-.34.66,1.94,1.94,0,0,1-.78.37v.18H4.13v-.17l-.56-.18a1.15,1.15,0,0,1-.51-.38,1.44,1.44,0,0,1-.27-.65,5.42,5.42,0,0,1-.07-1V6.93H5a1.49,1.49,0,0,1,.8.17,1.37,1.37,0,0,1,.47.57,4.76,4.76,0,0,1,.31.93h.63V4.69H6.56a4.58,4.58,0,0,1-.3,1,1.27,1.27,0,0,1-.49.57A1.52,1.52,0,0,1,5,6.39H2.72V.53H5.86a2.87,2.87,0,0,1,.85.1A1.52,1.52,0,0,1,7.32,1a2.66,2.66,0,0,1,.47.69,7.9,7.9,0,0,1,.39,1h.69V0Z"/><path fill="#fff" d="M10,4.69H9.65V7h.64c2.21,0,3.24.66,3.24,2.06,0,1.56-1,2.29-3,2.29H7.19v7.19H9.64v-5c.49,0,.82.06,1,.06C14.21,13.55,16,12,16,8.82,16,6.09,14,4.69,10,4.69"/></g></g></svg>