<svg xmlns="http://www.w3.org/2000/svg" viewBox="0 0 36.95 36.95"><defs><style>.cls-1{fill:#fff;}</style></defs><title>FP icon 1-1</title><g id="Layer_2" data-name="Layer 2"><g id="Layer_1-2" data-name="Layer 1"><path d="M37,18.48A18.48,18.48,0,1,1,18.48,0,18.47,18.47,0,0,1,37,18.48Z"/><path class="cls-1" d="M11.39,10.15v.18a3.09,3.09,0,0,1,.56.22,1.1,1.1,0,0,1,.37.34,1.52,1.52,0,0,1,.2.57,8.23,8.23,0,0,1,.05,1v8.75a6.36,6.36,0,0,1-.07,1.14,1.15,1.15,0,0,1-.33.67,2,2,0,0,1-.78.36v.18h4.13v-.17a5.35,5.35,0,0,1-.56-.18,1.1,1.1,0,0,1-.52-.37,1.67,1.67,0,0,1-.26-.65,5.42,5.42,0,0,1-.08-1V17.08h2.27a1.57,1.57,0,0,1,.79.17,1.38,1.38,0,0,1,.48.57,4.76,4.76,0,0,1,.31.93h.63v-3.9H18a5.13,5.13,0,0,1-.3,1,1.24,1.24,0,0,1-.5.57,1.45,1.45,0,0,1-.78.18H14.1V10.68h3.15a3.3,3.3,0,0,1,.85.1,1.42,1.42,0,0,1,.6.36,2.3,2.3,0,0,1,.47.7,8.49,8.49,0,0,1,.4,1h.68v-2.7Z"/><path class="cls-1" d="M21.36,14.85H21V17.1h.64c2.2,0,3.23.66,3.23,2.07s-1,2.28-3,2.28H18.58v7.19H21v-5c.5,0,.83.06,1,.06,3.57,0,5.38-1.6,5.38-4.73,0-2.74-2-4.13-6.05-4.13Z"/></g></g></svg>