<svg xmlns="http://www.w3.org/2000/svg" viewBox="0 0 60.59 29.97"><title>FP logo 2-1</title><g id="Layer_2" data-name="Layer 2"><g id="Layer_1-2" data-name="Layer 1"><path fill="#fff" d="M0,.61V.78A3.14,3.14,0,0,1,.52,1a.9.9,0,0,1,.33.31A1.18,1.18,0,0,1,1,1.8a7,7,0,0,1,.05,1v8a6.54,6.54,0,0,1-.06,1,1,1,0,0,1-.31.6,1.66,1.66,0,0,1-.71.34v.16H3.77v-.16a2.56,2.56,0,0,1-.51-.16.92.92,0,0,1-.47-.34,1.27,1.27,0,0,1-.24-.59,4.58,4.58,0,0,1-.07-.92V6.92H4.54a1.44,1.44,0,0,1,.73.16,1.27,1.27,0,0,1,.43.52A4.2,4.2,0,0,1,6,8.45h.58V4.89H6a4.32,4.32,0,0,1-.27.87,1.17,1.17,0,0,1-.45.52,1.37,1.37,0,0,1-.72.16H2.48V1.1H5.34a2.83,2.83,0,0,1,.78.08,1.47,1.47,0,0,1,.55.33,2.22,2.22,0,0,1,.43.64,6.82,6.82,0,0,1,.36.92h.62V.61Z"/><path fill="#fff" d="M16.9,12.51a1,1,0,0,1-.33-.29,1.25,1.25,0,0,1-.16-.45,4.24,4.24,0,0,1-.06-.54c0-.19,0-.51,0-1V7.05a4.47,4.47,0,0,0-.26-1.74,1.62,1.62,0,0,0-.76-.81,3,3,0,0,0-1.39-.28,5,5,0,0,0-1.16.13,8,8,0,0,0-1.16.33,11.2,11.2,0,0,0-1.37.62v.94h.92a2.37,2.37,0,0,1,.68-1.09,1.84,1.84,0,0,1,1.26-.42A2.08,2.08,0,0,1,14.25,5a1.69,1.69,0,0,1,.64.9,4.75,4.75,0,0,1,.2,1.57v.75h-.16A9.4,9.4,0,0,0,11,9.07,2.1,2.1,0,0,0,9.76,11,2.16,2.16,0,0,0,10,12.07a1.88,1.88,0,0,0,.75.7,2.58,2.58,0,0,0,1.17.25,3.22,3.22,0,0,0,1.43-.33,5.33,5.33,0,0,0,1.46-1.12l.06-.07.36.09-.05,1.28h2.2v-.16a2.33,2.33,0,0,1-.5-.2m-1.81-2.38a1.92,1.92,0,0,1-.31,1,2.5,2.5,0,0,1-.85.83,2.45,2.45,0,0,1-1.23.32,2.53,2.53,0,0,1-.82-.12,1.29,1.29,0,0,1-.61-.48,1.59,1.59,0,0,1-.24-.92,1.71,1.71,0,0,1,1-1.6,6.63,6.63,0,0,1,2.87-.51h.17Z"/><path fill="#fff" d="M24.83,9.56a2.56,2.56,0,0,0-.76-.74,9.9,9.9,0,0,0-1.42-.74,10.64,10.64,0,0,1-1.33-.64,2.15,2.15,0,0,1-.59-.57,1.41,1.41,0,0,1-.2-.79A1.27,1.27,0,0,1,21,5a2,2,0,0,1,1.27-.38,2.51,2.51,0,0,1,.92.14,1.63,1.63,0,0,1,.69.49,2.64,2.64,0,0,1,.47.82H25V4.49c-.5-.1-.93-.17-1.28-.21a10.84,10.84,0,0,0-1.16-.06,4.86,4.86,0,0,0-1.75.29,2.32,2.32,0,0,0-1.12.8,2,2,0,0,0-.38,1.21,1.73,1.73,0,0,0,.27,1,2.52,2.52,0,0,0,.75.74,8,8,0,0,0,1.32.67A10.89,10.89,0,0,1,23,9.58a2.08,2.08,0,0,1,.62.59,1.61,1.61,0,0,1,.21.86,1.58,1.58,0,0,1-.17.76,1.28,1.28,0,0,1-.45.5,1.62,1.62,0,0,1-.62.25,3.08,3.08,0,0,1-.68.08,2.27,2.27,0,0,1-1.45-.42,2.47,2.47,0,0,1-.76-1.2h-.62v1.64c.42.11.85.2,1.28.27a8.2,8.2,0,0,0,2.8,0,2.78,2.78,0,0,0,1-.43,2,2,0,0,0,.65-.75,2.65,2.65,0,0,0,.23-1.15,1.88,1.88,0,0,0-.26-1"/><path fill="#fff" d="M34.94,12.39a.93.93,0,0,1-.3-.53,5.52,5.52,0,0,1-.08-1.13V7.25A6.84,6.84,0,0,0,34.47,6a2.51,2.51,0,0,0-.26-.8,1.87,1.87,0,0,0-.45-.55,1.77,1.77,0,0,0-.64-.33,2.83,2.83,0,0,0-1.68,0,3.79,3.79,0,0,0-.79.42,8.79,8.79,0,0,0-1.12,1l-.07.07-.25-.07V0H26.76V.27a2.29,2.29,0,0,1,.56.16.85.85,0,0,1,.35.27,1.29,1.29,0,0,1,.19.44,2.77,2.77,0,0,1,.08.63C28,2,28,2.42,28,3v7.72a7.54,7.54,0,0,1,0,1,1.45,1.45,0,0,1-.17.51.9.9,0,0,1-.33.31,2.13,2.13,0,0,1-.5.2v.16h3.33v-.16a2.16,2.16,0,0,1-.51-.2,1,1,0,0,1-.34-.36,1.46,1.46,0,0,1-.14-.51,8.56,8.56,0,0,1,0-.91V7.2a1.72,1.72,0,0,1,.22-.83,2.91,2.91,0,0,1,.62-.73,3.21,3.21,0,0,1,.73-.48A1.73,1.73,0,0,1,31.51,5a1.69,1.69,0,0,1,1.13.37,1.91,1.91,0,0,1,.54,1.06,11.54,11.54,0,0,1,.12,1.91v2.42a5.68,5.68,0,0,1-.06,1,1.29,1.29,0,0,1-.19.52.94.94,0,0,1-.32.28,2.94,2.94,0,0,1-.43.17v.17h3.31v-.16a1.66,1.66,0,0,1-.67-.32"/><path fill="#fff" d="M40.08,12.43a1,1,0,0,1-.34-.56,5.71,5.71,0,0,1-.08-1.14V4.3H37.28v.27a2.4,2.4,0,0,1,.55.17.86.86,0,0,1,.41.39,1.83,1.83,0,0,1,.15.65c0,.24,0,.57,0,1v4a5.64,5.64,0,0,1-.07,1,1.24,1.24,0,0,1-.19.51.91.91,0,0,1-.31.28,2.94,2.94,0,0,1-.43.17v.17H40.7v-.16a1.8,1.8,0,0,1-.62-.28M38.35,2.23h1.37V.77H38.35Z"/><path fill="#fff" d="M49.16,5.32a3.65,3.65,0,0,0-2.87-1.1,4.06,4.06,0,0,0-2,.5,3.36,3.36,0,0,0-1.39,1.49,5.57,5.57,0,0,0-.51,2.5,4.67,4.67,0,0,0,1,3.23A3.55,3.55,0,0,0,46.14,13a4.35,4.35,0,0,0,2.13-.5A3.29,3.29,0,0,0,49.64,11a5.73,5.73,0,0,0,.49-2.51,4.71,4.71,0,0,0-1-3.19m-.57,4.88a4.14,4.14,0,0,1-.41,1.23,2.41,2.41,0,0,1-.75.86,2,2,0,0,1-1.15.33,2.06,2.06,0,0,1-1.87-1.1,6,6,0,0,1-.63-3,5.49,5.49,0,0,1,.62-2.84,2.07,2.07,0,0,1,1.86-1,2,2,0,0,1,1.28.45,2.89,2.89,0,0,1,.86,1.39,7.25,7.25,0,0,1,.31,2.31,8.25,8.25,0,0,1-.12,1.42"/><path fill="#fff" d="M60.06,12.5a.89.89,0,0,1-.32-.32,1.14,1.14,0,0,1-.15-.51,7.09,7.09,0,0,1,0-.94V7.25A6.76,6.76,0,0,0,59.45,6a2.75,2.75,0,0,0-.27-.81,2,2,0,0,0-.45-.54,1.77,1.77,0,0,0-.64-.33,2.88,2.88,0,0,0-1.69,0,4.36,4.36,0,0,0-.82.44,9.37,9.37,0,0,0-1.08,1l-.07.07-.34-.1.1-1.46H51.8v.26a2.4,2.4,0,0,1,.55.17.86.86,0,0,1,.41.39,1.48,1.48,0,0,1,.15.65c0,.24,0,.57,0,1v4a4.79,4.79,0,0,1-.07,1,1.11,1.11,0,0,1-.19.51.83.83,0,0,1-.31.28,2.94,2.94,0,0,1-.43.17v.17h3.29v-.16a1.74,1.74,0,0,1-.61-.28.92.92,0,0,1-.34-.56,5,5,0,0,1-.08-1.14V7.29a1.84,1.84,0,0,1,.19-.86,3,3,0,0,1,.6-.74,3,3,0,0,1,.75-.52,2,2,0,0,1,1.39-.07,1.49,1.49,0,0,1,.43.24,1.67,1.67,0,0,1,.34.36,1.89,1.89,0,0,1,.23.58,5.51,5.51,0,0,1,.13.89c0,.35,0,.75,0,1.18v2.42a4.57,4.57,0,0,1-.07,1,1.11,1.11,0,0,1-.19.52.79.79,0,0,1-.32.28,2.94,2.94,0,0,1-.43.17v.17h3.31v-.16a2.74,2.74,0,0,1-.53-.21"/><path fill="#fff" d="M12.29,17.22c-.26,0-1,0-2.25.09H9.75V29.81H12V25.25c.46,0,.75.05.92.05,3.25,0,4.91-1.45,4.91-4.31,0-2.5-1.86-3.77-5.52-3.77m3.24,3.94c0,1.42-.88,2.09-2.75,2.09l-.8-.06V19.33a5.15,5.15,0,0,1,.6,0c2,0,2.95.6,2.95,1.88"/><path fill="#fff" d="M23.75,20.35a3.93,3.93,0,0,0-3.1,1.34,5,5,0,0,0-1.17,3.45,5.25,5.25,0,0,0,1.12,3.5A3.94,3.94,0,0,0,23.75,30a4,4,0,0,0,3.12-1.32A5.18,5.18,0,0,0,28,25.14a5.14,5.14,0,0,0-1.11-3.5,4,4,0,0,0-3.14-1.29m1.46,7a1.68,1.68,0,0,1-1.46.76c-1.39,0-2-.95-2-3a3.69,3.69,0,0,1,.58-2.2,1.69,1.69,0,0,1,1.46-.74c1.38,0,2,.93,2,2.94a3.86,3.86,0,0,1-.56,2.22"/><path fill="#fff" d="M31.77,17.22a1.25,1.25,0,1,0,0,2.5,1.25,1.25,0,0,0,.89-2.14,1.21,1.21,0,0,0-.89-.36"/><polygon fill="#fff" points="29.68 22.4 30.88 22.4 30.88 29.81 33.03 29.81 33.03 20.51 29.68 20.51 29.68 22.4"/><path fill="#fff" d="M39.69,20.35a3.12,3.12,0,0,0-2.45,1l-.36-.82H35.33v9.3h2.15V23.13a2.24,2.24,0,0,1,.73-.61,2,2,0,0,1,1-.28,1.41,1.41,0,0,1,1.18.44,3.2,3.2,0,0,1,.36,1.77v5.36h2.15V24.12c0-2.47-1.1-3.77-3.18-3.77"/><path fill="#fff" d="M50.11,27.8h0a2.58,2.58,0,0,1-1.1.27,1.16,1.16,0,0,1-1-.35,2.3,2.3,0,0,1-.31-1.37v-4h2.41V20.51H47.73V18l-2.15.82v1.73h-1v1.81h1V27a3,3,0,0,0,.8,2.14,2.61,2.61,0,0,0,2,.86,9.34,9.34,0,0,0,2.19-.25l.27-.07-.34-2Z"/><path  fill="#fff" d="M59.47,21.48a4.31,4.31,0,0,0-3.15-1.13,4.17,4.17,0,0,0-3,1.24,5,5,0,0,0-1.4,3.67,4.65,4.65,0,0,0,1.37,3.51,4.2,4.2,0,0,0,3,1.2,6.21,6.21,0,0,0,2.17-.36,3.24,3.24,0,0,0,1.22-.69l.16-.16-1-1.62-.27.24a3,3,0,0,1-2,.69,2.37,2.37,0,0,1-1.71-.63,2.72,2.72,0,0,1-.74-1.84H60.4l.06-.21a3.72,3.72,0,0,0,.13-1,3.89,3.89,0,0,0-1.12-2.88m-1,2.41H54.24a2.15,2.15,0,0,1,2.16-1.65,2,2,0,0,1,1.54.59,1.86,1.86,0,0,1,.49,1.06"/></g></g></svg>